<?xml version="1.0" encoding="UTF-8" standalone="no"?>
<svg
   xmlns:dc="http://purl.org/dc/elements/1.1/"
   xmlns:cc="http://creativecommons.org/ns#"
   xmlns:rdf="http://www.w3.org/1999/02/22-rdf-syntax-ns#"
   xmlns:svg="http://www.w3.org/2000/svg"
   xmlns="http://www.w3.org/2000/svg"
   xmlns:sodipodi="http://sodipodi.sourceforge.net/DTD/sodipodi-0.dtd"
   xmlns:inkscape="http://www.inkscape.org/namespaces/inkscape"
   height="32px"
   style="enable-background:new 0 0 32 32;"
   version="1.1"
   viewBox="0 0 32 32"
   width="32px"
   xml:space="preserve"
   id="svg2"
   inkscape:version="0.48.4 r9939"
   sodipodi:docname="move.svg"><metadata
     id="metadata20"><rdf:RDF><cc:Work
         rdf:about=""><dc:format>image/svg+xml</dc:format><dc:type
           rdf:resource="http://purl.org/dc/dcmitype/StillImage" /><dc:title></dc:title></cc:Work></rdf:RDF></metadata><defs
     id="defs18" /><sodipodi:namedview
     pagecolor="#ffffff"
     bordercolor="#666666"
     borderopacity="1"
     objecttolerance="10"
     gridtolerance="10"
     guidetolerance="10"
     inkscape:pageopacity="0"
     inkscape:pageshadow="2"
     inkscape:window-width="1280"
     inkscape:window-height="962"
     id="namedview16"
     showgrid="false"
     inkscape:zoom="7.375"
     inkscape:cx="-9.9661017"
     inkscape:cy="-0.27118644"
     inkscape:window-x="-8"
     inkscape:window-y="-8"
     inkscape:window-maximized="1"
     inkscape:current-layer="svg2" /><g
     id="Layer_1" /><g
     id="move"
     style="fill:#929292;fill-opacity:1;opacity:1"><g
       id="g6"
       style="fill:#929292;fill-opacity:1"><polygon
         points="18,20 18,26 22,26 16,32 10,26 14,26 14,20   "
         style="fill:#929292;fill-opacity:1"
         id="polygon8" /><polygon
         points="14,12 14,6 10,6 16,0 22,6 18,6 18,12   "
         style="fill:#929292;fill-opacity:1"
         id="polygon10" /><polygon
         points="12,18 6,18 6,22 0,16 6,10 6,14 12,14   "
         style="fill:#929292;fill-opacity:1"
         id="polygon12" /><polygon
         points="20,14 26,14 26,10 32,16 26,22 26,18 20,18   "
         style="fill:#929292;fill-opacity:1"
         id="polygon14" /></g></g><path
     style="fill:#000000;fill-opacity:0"
     d="m 25.884746,20 0,-1.966102 -2.983051,0 -2.983051,0 0,-2.033898 0,-2.033898 2.983051,0 2.983051,0 0,-1.966102 c 0,-1.081356 0.04628,-1.966102 0.10285,-1.966102 0.05657,0 1.444184,1.342373 3.08359,2.983051 L 32.051926,16 l -2.98074,2.983051 c -1.639406,1.640678 -3.027022,2.983051 -3.08359,2.983051 -0.05657,0 -0.10285,-0.884746 -0.10285,-1.966102 z"
     id="path4399"
     inkscape:connector-curvature="0" /></svg>