<?xml version="1.0" ?><svg xmlns="http://www.w3.org/2000/svg" height="32" viewBox="0 0 32 32" width="32"><path d="M19.556 0H7.114a2.376 2.376 0 0 0-2.373 2.38v27.24A2.37 2.37 0 0 0 7.108 32h17.784a2.369 2.369 0 0 0 2.367-2.36V8.297L20.15 0h-.593zm-.593 1.185H7.106c-.652 0-1.18.54-1.18 1.18v27.27c0 .652.539 1.18 1.185 1.18H24.89c.654 0 1.185-.528 1.185-1.178V9.481h-4.743a2.364 2.364 0 0 1-2.368-2.377V1.185zm1.185.593V7.1c0 .66.534 1.195 1.181 1.195h4.39l-5.57-6.518z" fill="#929292" fill-rule="evenodd"/></svg>
