<svg xmlns="http://www.w3.org/2000/svg" height="32px" version="1.1" viewBox="0 0 32 32" width="32px" class="icon-trash">
	 <path fill-rule="evenodd" d="M21.333 3.556h4.741V4.74H5.926V3.556h4.74V2.37c0-1.318 1.06-2.37 2.368-2.37h5.932a2.37 2.37 0 0 1 2.367 2.37v1.186zM5.926 5.926v22.517A3.55 3.55 0 0 0 9.482 32h13.036a3.556 3.556 0 0 0 3.556-3.557V5.926H5.926zm4.74 3.555v18.963h1.186V9.481h-1.185zm4.741 0v18.963h1.186V9.481h-1.186zm4.741 0v18.963h1.185V9.481h-1.185zm-7.107-8.296c-.657 0-1.19.526-1.19 1.185v1.186h8.297V2.37c0-.654-.519-1.185-1.189-1.185h-5.918z"/>
</svg>
